<svg id="svg" version="1.1" xmlns="http://www.w3.org/2000/svg" xmlns:xlink="http://www.w3.org/1999/xlink" width="400" height="400" viewBox="0, 0, 400,400"><g id="svgg"><path id="path0" d="M189.000 71.170 C 123.474 79.236,89.331 153.410,125.991 208.055 C 163.867 264.514,249.242 258.618,278.827 197.500 C 309.089 134.986,257.699 62.713,189.000 71.170 M207.715 74.681 C 279.064 81.861,309.725 169.777,258.237 219.546 C 204.401 271.585,114.965 233.608,114.863 158.667 C 114.803 114.651,146.685 79.960,192.167 74.552 C 194.483 74.277,204.525 74.360,207.715 74.681 M159.115 117.352 C 150.243 119.074,148.494 131.282,156.541 135.322 C 161.436 137.780,168.080 135.261,169.725 130.324 L 170.221 128.833 175.361 128.745 L 180.500 128.658 183.402 133.843 C 186.768 139.858,186.906 139.339,181.768 140.033 C 177.441 140.618,177.694 140.066,177.589 149.130 L 177.500 156.833 170.330 156.923 L 163.161 157.013 162.548 155.286 C 159.091 145.553,144.136 148.441,144.176 158.833 C 144.216 169.210,159.127 172.012,162.579 162.292 L 163.156 160.667 170.366 160.667 L 177.575 160.667 177.966 163.083 C 178.706 167.662,181.409 173.001,185.088 177.147 L 186.550 178.795 183.692 183.895 L 180.833 188.996 175.636 188.998 L 170.439 189.000 170.049 187.698 C 167.423 178.933,154.159 179.819,151.829 188.916 C 148.980 200.036,166.067 205.453,169.905 194.647 L 170.490 193.000 176.578 193.000 C 183.843 193.000,182.854 193.612,186.679 186.742 C 189.893 180.970,189.507 181.261,191.676 182.976 C 198.983 188.752,200.712 188.767,208.058 183.121 C 210.514 181.233,210.074 180.915,213.447 187.014 C 216.989 193.417,216.293 193.000,223.432 193.000 L 229.242 193.000 230.303 195.155 C 234.863 204.418,248.347 201.204,248.330 190.857 C 248.317 182.767,238.663 178.506,232.631 183.928 C 231.010 185.386,229.667 187.451,229.667 188.487 C 229.667 188.927,228.920 189.000,224.402 189.000 L 219.138 189.000 216.289 183.928 L 213.439 178.855 215.248 176.723 C 218.962 172.345,220.899 168.495,221.867 163.571 L 222.440 160.654 229.609 160.744 L 236.778 160.833 237.277 162.332 C 240.584 172.254,255.847 169.508,255.796 159.000 C 255.747 148.631,241.426 145.832,237.482 155.420 L 236.833 156.998 229.583 156.999 L 222.333 157.000 222.333 149.218 C 222.333 140.017,222.517 140.454,218.441 139.956 C 217.007 139.781,215.271 139.488,214.584 139.306 L 213.334 138.975 214.335 137.237 C 214.885 136.282,216.194 133.962,217.244 132.083 L 219.153 128.667 224.368 128.667 L 229.583 128.667 229.770 129.583 C 231.856 139.833,248.175 137.391,248.308 126.809 C 248.443 116.048,231.893 113.317,229.770 123.750 L 229.583 124.667 223.458 124.667 C 216.134 124.667,217.249 123.936,212.896 131.586 C 211.097 134.747,209.426 137.333,209.182 137.333 C 208.305 137.333,204.808 134.420,203.667 132.737 C 201.588 129.673,198.896 129.195,197.086 131.568 C 194.565 134.872,190.421 138.384,190.099 137.489 C 189.350 135.413,182.955 125.141,182.296 124.956 C 181.858 124.833,178.992 124.718,175.926 124.700 L 170.352 124.667 169.657 123.050 C 167.946 119.075,163.268 116.546,159.115 117.352 M163.552 121.547 C 168.682 123.981,166.914 132.000,161.246 132.000 C 158.007 132.000,155.667 129.702,155.667 126.521 C 155.667 122.382,159.807 119.770,163.552 121.547 M241.930 121.893 C 246.386 125.193,244.300 132.000,238.833 132.000 C 233.182 132.000,231.262 124.596,236.173 121.743 C 237.822 120.785,240.530 120.855,241.930 121.893 M200.333 134.934 C 200.333 137.346,209.712 142.784,215.578 143.775 L 218.167 144.212 218.259 152.189 C 218.385 162.959,217.924 165.524,214.952 170.593 C 212.575 174.645,202.233 183.667,199.963 183.667 C 198.045 183.667,188.967 176.108,186.159 172.173 C 182.194 166.617,181.609 164.013,181.739 152.519 L 181.833 144.206 184.122 143.783 C 189.731 142.749,194.184 140.537,197.500 137.141 C 199.765 134.821,200.333 134.378,200.333 134.934 M197.006 144.006 C 193.926 145.444,192.970 147.132,192.693 151.623 L 192.500 154.747 191.000 155.299 L 189.500 155.852 189.410 162.633 C 189.347 167.354,189.435 169.554,189.700 169.874 C 190.220 170.500,209.311 170.556,209.933 169.933 C 210.217 169.649,210.333 167.624,210.333 162.941 C 210.333 155.648,210.366 155.755,207.964 155.165 C 207.123 154.958,207.089 154.852,206.910 151.849 C 206.523 145.370,201.910 141.717,197.006 144.006 M202.706 147.961 C 203.958 149.213,204.000 149.329,204.000 151.544 L 204.000 153.833 200.000 153.833 L 196.000 153.833 196.000 151.572 C 196.000 146.968,199.714 144.969,202.706 147.961 M156.597 154.226 C 161.006 157.491,159.085 164.342,153.750 164.384 C 147.909 164.429,145.811 156.998,150.840 154.076 C 152.489 153.118,155.197 153.189,156.597 154.226 M248.999 153.999 C 252.143 155.604,252.949 160.050,250.561 162.615 C 247.113 166.318,240.923 164.022,240.923 159.040 C 240.923 154.688,245.162 152.042,248.999 153.999 M201.667 158.333 C 202.506 159.173,202.526 160.722,201.707 161.463 C 201.123 161.992,201.114 162.139,201.570 163.697 C 202.241 165.986,202.038 166.333,200.030 166.333 C 197.986 166.333,197.801 166.054,198.342 163.796 C 198.723 162.208,198.709 161.933,198.220 161.392 C 196.247 159.213,199.585 156.252,201.667 158.333 M163.698 186.442 C 167.161 188.269,167.678 192.915,164.697 195.423 C 160.939 198.586,155.667 196.155,155.667 191.260 C 155.667 186.981,159.902 184.440,163.698 186.442 M241.469 186.422 C 243.323 187.482,244.084 188.667,244.258 190.761 C 244.758 196.791,236.975 199.222,234.018 193.960 C 231.368 189.246,236.798 183.752,241.469 186.422 M58.667 274.500 C 58.667 275.878,58.735 276.000,59.500 276.000 L 60.333 276.000 60.333 279.643 C 60.333 283.168,60.309 283.290,59.583 283.393 C 58.948 283.484,58.833 283.704,58.833 284.833 L 58.833 286.167 61.833 286.167 L 64.833 286.167 64.938 284.891 C 65.025 283.835,64.925 283.585,64.355 283.436 C 63.383 283.181,63.488 282.067,64.528 281.593 C 65.730 281.045,67.635 283.172,67.654 285.083 L 67.667 286.333 70.519 286.333 L 73.372 286.333 73.269 284.918 C 73.180 283.682,73.054 283.482,72.273 283.335 C 71.657 283.219,70.869 282.483,69.742 280.972 L 68.106 278.778 69.754 277.389 C 70.686 276.604,71.749 276.000,72.201 276.000 C 72.926 276.000,73.000 275.861,73.000 274.500 L 73.000 273.000 69.667 273.000 L 66.333 273.000 66.333 274.267 C 66.333 274.963,66.493 275.693,66.688 275.888 C 66.940 276.140,66.628 276.549,65.623 277.288 C 63.831 278.606,63.667 278.596,63.667 277.167 C 63.667 276.352,63.817 276.000,64.167 276.000 C 64.537 276.000,64.667 275.611,64.667 274.500 L 64.667 273.000 61.667 273.000 L 58.667 273.000 58.667 274.500 M74.870 273.807 C 74.604 274.866,74.895 275.561,75.690 275.769 C 76.694 276.032,76.678 283.333,75.673 283.333 C 74.978 283.333,74.509 284.434,74.725 285.557 C 74.833 286.120,75.289 286.167,80.671 286.167 L 86.500 286.167 86.514 284.083 L 86.528 282.000 85.098 282.000 C 83.889 282.000,83.667 282.104,83.667 282.667 C 83.667 283.813,80.138 283.648,79.917 282.492 C 79.721 281.465,80.040 281.242,81.708 281.242 L 83.000 281.242 83.000 279.788 L 83.000 278.333 81.500 278.333 C 80.008 278.333,80.000 278.327,80.000 277.167 L 80.000 276.000 81.833 276.000 C 83.444 276.000,83.667 276.081,83.667 276.667 C 83.667 277.222,83.889 277.333,85.000 277.333 L 86.333 277.333 86.333 275.167 L 86.333 273.000 80.703 273.000 L 75.072 273.000 74.870 273.807 M88.333 274.294 C 88.333 275.309,88.478 275.627,89.000 275.763 C 89.616 275.924,89.667 276.218,89.667 279.635 C 89.667 283.111,89.627 283.333,89.000 283.333 C 88.432 283.333,88.333 283.556,88.333 284.841 L 88.333 286.349 94.083 286.258 L 99.833 286.167 99.933 284.083 L 100.032 282.000 98.721 282.000 C 97.680 282.000,97.374 282.140,97.232 282.685 C 96.920 283.879,93.538 283.496,93.395 282.250 C 93.285 281.298,93.655 281.133,95.546 281.288 C 96.134 281.337,96.286 281.128,96.416 280.090 C 96.625 278.425,96.541 278.333,94.814 278.333 C 93.344 278.333,93.333 278.325,93.333 277.167 L 93.333 276.000 95.167 276.000 C 96.778 276.000,97.000 276.081,97.000 276.667 C 97.000 277.222,97.222 277.333,98.333 277.333 L 99.667 277.333 99.667 275.167 L 99.667 273.000 94.000 273.000 L 88.333 273.000 88.333 274.294 M101.667 274.333 C 101.667 275.444,101.778 275.667,102.333 275.667 C 102.961 275.667,103.000 275.889,103.000 279.500 C 103.000 283.111,102.961 283.333,102.333 283.333 C 101.764 283.333,101.667 283.556,101.667 284.863 L 101.667 286.393 106.750 286.275 C 114.090 286.105,116.689 284.033,114.071 280.439 C 113.468 279.611,113.453 279.460,113.910 278.763 C 114.666 277.609,114.522 275.411,113.628 274.459 C 112.537 273.298,111.017 273.004,106.083 273.002 L 101.667 273.000 101.667 274.333 M116.203 273.807 C 115.937 274.866,116.228 275.561,117.023 275.769 C 118.028 276.032,118.012 283.333,117.006 283.333 C 116.311 283.333,115.842 284.434,116.058 285.557 C 116.167 286.120,116.622 286.167,122.005 286.167 L 127.833 286.167 127.848 284.083 L 127.862 282.000 126.431 282.000 C 125.222 282.000,125.000 282.104,125.000 282.667 C 125.000 283.813,121.471 283.648,121.250 282.492 C 121.054 281.465,121.373 281.242,123.042 281.242 L 124.333 281.242 124.333 279.788 L 124.333 278.333 122.833 278.333 C 121.341 278.333,121.333 278.327,121.333 277.167 L 121.333 276.000 123.167 276.000 C 124.778 276.000,125.000 276.081,125.000 276.667 C 125.000 277.222,125.222 277.333,126.333 277.333 L 127.667 277.333 127.667 275.167 L 127.667 273.000 122.036 273.000 L 116.406 273.000 116.203 273.807 M129.667 274.508 C 129.667 275.899,129.741 276.058,130.315 275.908 C 131.084 275.707,131.315 276.583,131.176 279.167 C 131.127 280.083,131.067 281.396,131.043 282.083 C 131.008 283.097,130.874 283.333,130.333 283.333 C 129.765 283.333,129.667 283.556,129.667 284.845 L 129.667 286.357 132.917 286.262 L 136.167 286.167 136.269 284.942 C 136.357 283.881,136.268 283.703,135.602 283.609 C 134.448 283.445,134.321 282.000,135.460 282.000 C 136.563 282.000,138.000 283.856,138.000 285.281 L 138.000 286.333 140.500 286.333 L 143.000 286.333 143.000 284.833 C 143.000 283.468,142.928 283.333,142.191 283.333 C 141.717 283.333,141.100 282.975,140.701 282.468 L 140.020 281.603 141.148 280.539 C 142.623 279.148,142.962 277.486,142.118 275.786 C 140.950 273.436,140.254 273.181,134.643 273.053 L 129.667 272.939 129.667 274.508 M154.833 273.507 C 149.808 275.374,151.571 280.988,157.186 280.998 C 160.184 281.004,160.085 283.123,157.080 283.266 C 155.059 283.362,155.000 283.341,155.000 282.536 C 155.000 281.495,154.802 281.388,153.234 281.585 L 151.968 281.743 152.067 283.455 C 152.361 288.515,163.000 287.483,163.000 282.394 C 163.000 279.670,160.666 278.000,156.858 278.000 C 155.715 278.000,155.170 277.211,155.846 276.535 C 156.658 275.722,159.014 275.814,159.237 276.667 C 159.378 277.207,159.691 277.333,160.891 277.333 L 162.372 277.333 162.269 275.933 C 162.099 273.605,158.090 272.297,154.833 273.507 M164.333 274.294 C 164.333 275.309,164.478 275.627,165.000 275.763 C 165.616 275.924,165.667 276.218,165.667 279.635 C 165.667 283.111,165.627 283.333,165.000 283.333 C 164.432 283.333,164.333 283.556,164.333 284.841 L 164.333 286.349 170.083 286.258 L 175.833 286.167 175.933 284.083 L 176.032 282.000 174.721 282.000 C 173.680 282.000,173.374 282.140,173.232 282.685 C 172.920 283.879,169.538 283.496,169.395 282.250 C 169.285 281.298,169.655 281.133,171.546 281.288 C 172.134 281.337,172.286 281.128,172.416 280.090 C 172.625 278.425,172.541 278.333,170.814 278.333 C 169.344 278.333,169.333 278.325,169.333 277.167 L 169.333 276.000 171.167 276.000 C 172.778 276.000,173.000 276.081,173.000 276.667 C 173.000 277.222,173.222 277.333,174.333 277.333 L 175.667 277.333 175.667 275.167 L 175.667 273.000 170.000 273.000 L 164.333 273.000 164.333 274.294 M181.709 273.480 C 175.380 275.539,175.890 284.883,182.411 286.343 C 184.611 286.835,187.394 286.352,188.746 285.243 L 189.652 284.500 188.719 283.377 C 187.792 282.262,187.780 282.258,186.743 282.794 C 183.335 284.556,179.931 282.104,180.970 278.636 C 181.718 276.138,185.844 275.150,186.062 277.417 C 186.161 278.441,186.239 278.500,187.500 278.500 L 188.833 278.500 188.833 276.519 C 188.833 273.573,185.627 272.205,181.709 273.480 M190.462 273.478 C 190.075 274.488,190.485 275.831,191.213 275.935 C 191.878 276.030,191.934 276.263,192.052 279.437 C 192.239 284.486,193.675 286.270,197.803 286.582 C 202.092 286.906,204.307 284.134,204.325 278.417 C 204.333 276.225,204.395 276.000,205.000 276.000 C 205.569 276.000,205.667 275.778,205.667 274.488 L 205.667 272.976 202.421 273.071 C 199.583 273.155,199.160 273.243,199.058 273.776 C 198.843 274.900,199.312 276.000,200.006 276.000 C 200.790 276.000,200.991 280.591,200.276 282.159 C 199.498 283.867,196.805 283.769,195.910 282.000 C 195.004 280.206,195.214 275.874,196.215 275.731 C 196.934 275.629,197.441 274.336,197.106 273.461 C 196.865 272.835,190.703 272.850,190.462 273.478 M207.333 274.508 C 207.333 275.899,207.407 276.058,207.981 275.908 C 208.750 275.707,208.982 276.583,208.843 279.167 C 208.794 280.083,208.734 281.396,208.710 282.083 C 208.675 283.097,208.540 283.333,208.000 283.333 C 207.431 283.333,207.333 283.556,207.333 284.845 L 207.333 286.357 210.583 286.262 L 213.833 286.167 213.935 284.942 C 214.024 283.881,213.935 283.703,213.269 283.609 C 212.115 283.445,211.987 282.000,213.127 282.000 C 214.230 282.000,215.667 283.856,215.667 285.281 L 215.667 286.333 218.167 286.333 L 220.667 286.333 220.667 284.833 C 220.667 283.468,220.594 283.333,219.858 283.333 C 219.383 283.333,218.766 282.975,218.368 282.468 L 217.687 281.603 218.815 280.539 C 220.290 279.148,220.629 277.486,219.784 275.786 C 218.616 273.436,217.920 273.181,212.310 273.053 L 207.333 272.939 207.333 274.508 M222.567 273.211 C 221.903 273.875,222.332 276.000,223.130 276.000 C 224.489 276.000,224.336 283.081,222.969 283.438 C 222.474 283.567,222.333 283.907,222.333 284.969 L 222.333 286.333 225.686 286.333 L 229.038 286.333 228.936 284.917 C 228.853 283.771,228.699 283.481,228.133 283.400 C 226.991 283.237,227.120 276.221,228.268 276.058 C 228.949 275.961,229.024 275.792,228.935 274.558 L 228.833 273.167 225.817 273.072 C 224.158 273.019,222.696 273.082,222.567 273.211 M230.817 273.360 C 230.695 273.558,230.698 274.683,230.824 275.860 L 231.053 278.000 232.504 278.000 C 233.840 278.000,233.964 277.927,234.061 277.083 C 234.124 276.538,234.369 276.167,234.667 276.167 C 235.634 276.167,235.563 283.255,234.594 283.392 C 233.958 283.482,233.817 283.732,233.731 284.917 L 233.628 286.333 236.981 286.333 L 240.333 286.333 240.333 284.833 C 240.333 283.587,240.227 283.333,239.706 283.333 C 238.866 283.333,238.757 282.708,238.979 279.167 C 239.169 276.131,240.007 274.781,240.272 277.083 C 240.370 277.930,240.491 278.000,241.855 278.000 L 243.333 278.000 243.333 275.500 L 243.333 273.000 237.186 273.000 C 233.147 273.000,230.963 273.123,230.817 273.360 M244.667 274.327 C 244.667 275.424,244.797 275.687,245.417 275.846 C 246.354 276.086,250.000 281.404,250.000 282.531 C 250.000 283.165,249.825 283.333,249.167 283.333 C 248.401 283.333,248.333 283.456,248.333 284.833 L 248.333 286.333 251.667 286.333 L 255.000 286.333 255.000 284.833 C 255.000 283.556,254.901 283.333,254.333 283.333 C 252.684 283.333,256.063 276.185,257.833 275.929 C 258.362 275.853,258.521 275.537,258.603 274.404 L 258.706 272.974 255.603 273.071 L 252.500 273.167 252.394 274.466 C 252.333 275.212,252.454 275.869,252.679 276.007 C 252.966 276.185,252.918 276.483,252.497 277.125 C 251.760 278.249,251.468 278.227,250.833 277.000 C 250.539 276.431,250.463 276.000,250.658 276.000 C 250.846 276.000,251.000 275.325,251.000 274.500 L 251.000 273.000 247.833 273.000 L 244.667 273.000 244.667 274.327 M272.214 273.480 C 265.130 275.384,266.177 285.815,273.529 286.574 C 278.053 287.041,280.333 285.386,280.333 281.637 L 280.333 279.000 277.167 279.000 L 274.000 279.000 274.000 280.333 L 274.000 281.667 275.691 281.667 C 277.599 281.667,277.907 282.429,276.330 283.248 C 273.691 284.621,270.556 281.973,271.139 278.865 C 271.652 276.130,276.123 274.859,277.011 277.196 C 277.615 278.785,279.805 278.227,279.934 276.452 C 280.125 273.831,276.336 272.373,272.214 273.480 M282.000 274.508 C 282.000 275.899,282.074 276.058,282.648 275.908 C 283.417 275.707,283.648 276.583,283.510 279.167 C 283.460 280.083,283.401 281.396,283.377 282.083 C 283.342 283.097,283.207 283.333,282.667 283.333 C 282.098 283.333,282.000 283.556,282.000 284.845 L 282.000 286.357 285.250 286.262 L 288.500 286.167 288.602 284.942 C 288.690 283.881,288.601 283.703,287.935 283.609 C 286.782 283.445,286.654 282.000,287.793 282.000 C 288.897 282.000,290.333 283.856,290.333 285.281 L 290.333 286.333 292.833 286.333 L 295.333 286.333 295.333 284.833 C 295.333 283.468,295.261 283.333,294.524 283.333 C 294.050 283.333,293.433 282.975,293.034 282.468 L 292.354 281.603 293.482 280.539 C 294.957 279.148,295.296 277.486,294.451 275.786 C 293.283 273.436,292.587 273.181,286.976 273.053 L 282.000 272.939 282.000 274.508 M301.667 273.312 C 298.318 273.988,296.333 276.392,296.333 279.773 C 296.333 288.544,309.958 289.156,310.584 280.414 C 310.952 275.263,307.121 272.212,301.667 273.312 M311.557 273.220 C 311.007 273.771,311.326 276.000,311.955 276.000 C 312.508 276.000,312.597 276.363,312.754 279.250 C 313.026 284.251,314.033 285.753,317.614 286.501 C 322.242 287.467,324.994 284.586,324.998 278.773 C 325.000 276.200,325.042 276.040,325.750 275.940 C 326.385 275.850,326.500 275.629,326.500 274.500 L 326.500 273.167 323.363 273.070 C 321.638 273.017,320.120 273.092,319.990 273.237 C 319.480 273.804,320.047 276.000,320.703 276.000 C 321.692 276.000,321.645 281.688,320.648 282.685 C 319.642 283.691,317.341 283.483,316.763 282.333 C 315.887 280.594,316.201 275.667,317.187 275.667 C 317.969 275.667,318.032 275.563,317.937 274.417 L 317.833 273.167 314.807 273.081 C 313.143 273.035,311.681 273.097,311.557 273.220 M328.000 274.500 C 328.000 275.883,328.066 276.000,328.845 276.000 L 329.689 276.000 329.595 279.583 C 329.504 283.013,329.468 283.171,328.750 283.273 C 328.100 283.365,328.000 283.578,328.000 284.868 L 328.000 286.357 331.417 286.262 L 334.833 286.167 334.833 284.833 C 334.833 283.704,334.718 283.484,334.083 283.393 C 332.373 283.151,333.194 282.001,335.083 281.993 C 338.590 281.978,340.667 280.348,340.667 277.608 C 340.667 273.866,339.143 273.000,332.561 273.000 L 328.000 273.000 328.000 274.500 M110.476 276.190 C 111.692 277.406,110.808 278.333,108.433 278.333 L 106.667 278.333 106.667 277.222 C 106.667 276.611,106.767 276.011,106.889 275.889 C 107.331 275.447,109.953 275.667,110.476 276.190 M138.683 276.698 C 139.581 278.376,138.388 279.506,135.963 279.275 C 134.870 279.170,134.830 279.116,134.732 277.583 L 134.630 276.000 136.470 276.000 C 137.996 276.000,138.374 276.119,138.683 276.698 M216.350 276.698 C 217.248 278.376,216.055 279.506,213.629 279.275 C 212.536 279.170,212.497 279.116,212.398 277.583 L 212.297 276.000 214.137 276.000 C 215.663 276.000,216.040 276.119,216.350 276.698 M291.017 276.698 C 291.915 278.376,290.722 279.506,288.296 279.275 C 287.203 279.170,287.163 279.116,287.065 277.583 L 286.963 276.000 288.803 276.000 C 290.329 276.000,290.707 276.119,291.017 276.698 M305.867 277.133 C 307.357 278.624,307.467 280.727,306.137 282.308 C 304.431 284.335,300.771 283.436,300.034 280.808 C 299.029 277.225,303.281 274.547,305.867 277.133 M336.592 276.519 C 338.146 277.607,336.925 279.103,334.617 278.937 C 333.305 278.843,333.156 278.744,333.059 277.897 C 332.855 276.114,334.884 275.322,336.592 276.519 M110.933 281.400 C 112.072 282.539,110.849 283.667,108.476 283.667 L 106.667 283.667 106.667 282.333 L 106.667 281.000 108.600 281.000 C 109.663 281.000,110.713 281.180,110.933 281.400 " stroke="none" fill="#060608" fill-rule="evenodd"></path><path id="path1" d="M0.000 200.000 L 0.000 400.000 200.000 400.000 L 400.000 400.000 400.000 200.000 L 400.000 0.000 200.000 0.000 L 0.000 0.000 0.000 200.000 M212.000 71.312 C 275.798 81.492,308.207 151.526,274.304 205.948 C 248.564 247.267,193.062 259.879,152.000 233.739 C 110.268 207.172,98.278 151.363,125.462 110.215 C 140.568 87.350,164.501 73.320,193.167 70.526 C 196.545 70.197,208.011 70.675,212.000 71.312 M194.667 74.532 C 134.007 78.485,96.868 142.233,123.707 196.333 C 156.839 263.117,254.608 257.037,279.157 186.667 C 298.790 130.388,253.801 70.679,194.667 74.532 M165.188 118.091 C 167.249 119.138,168.999 121.015,169.857 123.100 L 170.500 124.664 176.525 124.665 C 183.724 124.667,182.644 123.945,187.004 131.667 C 188.712 134.692,190.160 137.229,190.222 137.306 C 190.648 137.834,194.237 134.704,197.203 131.218 C 199.286 128.770,201.267 129.415,204.619 133.633 C 205.642 134.919,209.197 137.618,209.450 137.301 C 209.509 137.227,210.955 134.692,212.663 131.667 C 217.024 123.943,215.939 124.667,223.163 124.667 L 229.211 124.667 229.962 122.854 C 234.135 112.786,249.682 116.730,248.563 127.573 C 247.539 137.493,233.761 139.645,229.962 130.479 L 229.211 128.667 224.291 128.667 L 219.371 128.667 216.515 133.718 C 214.943 136.496,213.725 138.836,213.807 138.919 C 213.890 139.001,215.429 139.291,217.229 139.564 C 222.930 140.428,222.667 139.939,222.667 149.688 L 222.667 157.000 229.675 157.000 L 236.683 157.000 237.017 156.083 C 240.750 145.837,255.234 147.706,255.929 158.524 C 256.624 169.362,240.652 172.793,237.235 162.538 L 236.778 161.167 229.632 161.077 L 222.486 160.987 222.088 163.490 C 221.387 167.890,218.840 172.840,214.899 177.459 L 213.632 178.944 216.436 183.889 L 219.241 188.833 224.239 188.925 L 229.236 189.017 229.843 187.429 C 233.397 178.122,247.540 180.181,248.569 190.154 C 249.680 200.911,234.616 204.855,230.007 195.015 L 229.219 193.333 223.693 193.300 C 216.176 193.255,217.043 193.763,213.402 187.263 L 210.298 181.721 207.806 183.509 C 200.114 189.028,199.610 189.026,192.103 183.458 L 189.705 181.680 187.139 186.257 C 185.727 188.774,184.338 191.242,184.053 191.740 C 183.278 193.096,182.097 193.333,176.126 193.333 L 170.685 193.333 169.990 194.950 C 165.783 204.730,150.732 201.128,151.398 190.500 C 152.042 180.229,166.532 177.937,170.195 187.528 L 170.757 189.000 175.693 189.000 L 180.629 189.000 183.483 183.953 L 186.337 178.907 185.085 177.430 C 181.116 172.746,178.611 167.879,177.913 163.496 L 177.516 161.000 170.311 161.000 L 163.106 161.000 162.716 162.302 C 161.241 167.222,154.221 170.025,149.479 167.586 C 140.236 162.834,143.343 149.167,153.667 149.167 C 158.008 149.167,163.000 152.904,163.000 156.153 C 163.000 156.600,163.936 156.667,170.167 156.667 L 177.333 156.667 177.333 149.152 L 177.333 141.636 178.152 140.818 C 178.764 140.206,179.330 139.999,180.402 139.995 C 181.765 139.990,185.525 139.253,185.852 138.926 C 185.936 138.841,184.767 136.574,183.253 133.887 L 180.500 129.002 175.462 129.001 L 170.424 129.000 169.870 130.450 C 167.104 137.693,156.918 138.626,152.682 132.024 C 147.392 123.780,156.469 113.666,165.188 118.091 M159.798 121.312 C 154.195 122.668,154.567 130.796,160.282 131.875 C 163.791 132.538,167.258 128.768,166.325 125.304 C 165.541 122.389,162.651 120.622,159.798 121.312 M237.167 121.492 C 232.666 123.112,232.218 129.260,236.451 131.310 C 242.201 134.093,247.060 126.810,242.314 122.522 C 241.590 121.868,240.736 121.331,240.416 121.329 C 240.095 121.326,239.533 121.254,239.167 121.169 C 238.800 121.083,237.900 121.229,237.167 121.492 M197.617 137.344 C 194.738 140.273,190.233 142.611,185.344 143.713 L 182.000 144.467 182.000 153.497 C 182.000 163.539,182.165 164.708,184.135 168.583 C 186.623 173.476,192.571 179.376,198.547 182.879 L 200.000 183.730 201.453 182.879 C 205.895 180.275,211.635 175.145,213.996 171.667 C 217.623 166.325,217.989 164.645,217.995 153.302 L 218.000 144.438 215.102 143.868 C 209.700 142.807,205.030 140.359,201.708 136.846 C 200.748 135.831,199.933 135.020,199.898 135.044 C 199.862 135.069,198.836 136.104,197.617 137.344 M203.651 144.508 C 205.939 146.044,207.000 148.351,207.000 151.790 L 207.000 154.504 208.667 155.268 L 210.333 156.033 210.333 163.025 L 210.333 170.017 209.478 170.342 C 208.998 170.524,204.614 170.667,199.478 170.667 C 187.875 170.667,189.000 171.502,189.000 162.885 C 189.000 155.697,188.955 155.843,191.417 154.974 L 192.667 154.533 192.667 151.561 C 192.667 147.355,193.654 145.576,197.000 143.754 C 198.476 142.951,201.913 143.341,203.651 144.508 M198.423 147.148 C 196.864 147.845,196.003 149.451,196.001 151.667 L 196.000 153.500 200.000 153.500 L 204.000 153.500 203.981 152.000 C 203.932 148.069,201.369 145.832,198.423 147.148 M152.374 153.695 C 147.538 154.718,146.682 161.496,151.118 163.643 C 153.660 164.874,156.229 164.300,157.882 162.132 C 160.839 158.255,157.197 152.676,152.374 153.695 M245.138 153.739 C 239.395 154.914,239.919 163.584,245.772 164.244 C 252.378 164.989,254.082 155.104,247.591 153.697 C 246.991 153.567,245.887 153.586,245.138 153.739 M198.485 158.485 C 197.494 159.476,197.450 160.301,198.328 161.418 C 198.947 162.204,198.959 162.364,198.511 163.853 C 197.909 165.851,198.010 166.000,199.964 166.000 C 202.007 166.000,202.033 165.960,201.419 163.799 C 200.932 162.087,200.937 161.953,201.506 161.537 C 202.390 160.890,202.303 159.052,201.352 158.281 C 200.322 157.448,199.461 157.509,198.485 158.485 M158.330 186.750 C 153.924 189.748,155.393 196.085,160.610 196.586 C 166.149 197.118,168.656 189.878,164.016 186.751 C 162.480 185.716,159.850 185.715,158.330 186.750 M235.966 186.750 C 231.293 189.847,233.692 196.994,239.264 196.575 C 246.115 196.061,245.705 186.000,238.833 186.000 C 237.592 186.000,236.777 186.213,235.966 186.750 M86.265 275.299 L 86.363 277.667 85.375 277.667 C 83.934 277.667,83.333 277.350,83.333 276.589 C 83.333 276.014,83.183 275.947,82.292 276.125 C 81.719 276.240,80.959 276.333,80.603 276.333 C 78.942 276.333,80.041 278.159,81.768 278.269 L 83.370 278.371 83.268 279.769 L 83.167 281.167 81.583 281.268 C 78.973 281.436,79.199 283.000,81.833 283.000 C 83.444 283.000,83.667 282.919,83.667 282.333 C 83.667 281.765,83.889 281.667,85.167 281.667 L 86.667 281.667 86.667 284.000 L 86.667 286.333 80.648 286.333 L 74.630 286.333 74.732 284.750 C 74.806 283.598,74.961 283.194,75.303 283.268 C 76.505 283.526,76.562 276.389,75.361 275.945 C 74.726 275.710,74.307 273.471,74.805 272.972 C 74.882 272.896,77.469 272.855,80.555 272.882 L 86.167 272.931 86.265 275.299 M99.745 273.167 C 100.042 273.571,100.079 276.405,99.798 277.139 C 99.397 278.185,96.667 277.705,96.667 276.589 C 96.667 276.014,96.516 275.947,95.625 276.125 C 95.052 276.240,94.292 276.333,93.936 276.333 C 92.289 276.333,93.371 278.158,95.083 278.268 L 96.667 278.370 96.667 279.852 L 96.667 281.333 95.000 281.333 C 93.444 281.333,93.333 281.389,93.333 282.167 C 93.333 283.316,96.800 283.469,97.097 282.333 C 97.234 281.806,97.551 281.667,98.608 281.667 C 100.175 281.667,100.201 281.714,100.054 284.327 L 99.941 286.333 93.952 286.333 L 87.963 286.333 88.065 284.750 C 88.150 283.423,88.274 283.167,88.833 283.167 C 89.947 283.167,90.040 276.099,88.928 275.941 C 88.177 275.835,87.700 274.263,88.101 273.218 C 88.291 272.723,99.383 272.673,99.745 273.167 M112.900 273.586 C 114.643 274.583,115.186 276.851,114.115 278.664 C 113.590 279.553,113.598 279.641,114.282 280.510 C 117.115 284.112,114.066 286.394,106.598 286.259 L 101.500 286.167 101.500 284.833 C 101.500 283.704,101.615 283.484,102.250 283.393 C 103.323 283.241,103.441 276.000,102.370 276.000 C 101.693 276.000,101.168 273.834,101.684 273.167 C 102.058 272.682,111.967 273.053,112.900 273.586 M127.598 275.299 L 127.696 277.667 126.709 277.667 C 125.268 277.667,124.667 277.350,124.667 276.589 C 124.667 276.014,124.516 275.947,123.625 276.125 C 123.052 276.240,122.292 276.333,121.936 276.333 C 120.275 276.333,121.374 278.159,123.102 278.269 L 124.703 278.371 124.602 279.769 L 124.500 281.167 122.917 281.268 C 120.306 281.436,120.532 283.000,123.167 283.000 C 124.778 283.000,125.000 282.919,125.000 282.333 C 125.000 281.765,125.222 281.667,126.500 281.667 L 128.000 281.667 128.000 284.000 L 128.000 286.333 121.982 286.333 L 115.963 286.333 116.065 284.750 C 116.139 283.598,116.294 283.194,116.636 283.268 C 117.838 283.526,117.895 276.389,116.694 275.945 C 116.059 275.710,115.640 273.471,116.139 272.972 C 116.215 272.896,118.803 272.855,121.889 272.882 L 127.500 272.931 127.598 275.299 M175.745 273.167 C 176.042 273.571,176.079 276.405,175.798 277.139 C 175.397 278.185,172.667 277.705,172.667 276.589 C 172.667 276.014,172.516 275.947,171.625 276.125 C 171.052 276.240,170.292 276.333,169.936 276.333 C 168.289 276.333,169.371 278.158,171.083 278.268 L 172.667 278.370 172.667 279.852 L 172.667 281.333 171.000 281.333 C 169.444 281.333,169.333 281.389,169.333 282.167 C 169.333 283.316,172.800 283.469,173.097 282.333 C 173.234 281.806,173.551 281.667,174.608 281.667 C 176.175 281.667,176.201 281.714,176.054 284.327 L 175.941 286.333 169.952 286.333 L 163.963 286.333 164.065 284.750 C 164.150 283.423,164.274 283.167,164.833 283.167 C 165.947 283.167,166.040 276.099,164.928 275.941 C 164.177 275.835,163.700 274.263,164.101 273.218 C 164.291 272.723,175.383 272.673,175.745 273.167 M64.940 274.474 C 65.016 275.398,64.894 275.866,64.524 276.073 C 64.230 276.238,64.000 276.804,64.000 277.360 L 64.000 278.354 65.458 277.261 C 66.261 276.659,66.776 276.077,66.603 275.967 C 66.430 275.857,66.261 275.182,66.228 274.467 L 66.167 273.167 69.574 273.072 C 72.951 272.978,72.983 272.984,73.188 273.798 C 73.502 275.050,73.054 276.005,72.057 276.211 C 71.567 276.311,70.511 276.963,69.709 277.658 L 68.251 278.922 70.019 281.128 C 71.283 282.705,72.007 283.333,72.560 283.333 C 73.255 283.333,73.333 283.486,73.333 284.846 L 73.333 286.359 70.417 286.263 L 67.500 286.167 67.577 285.136 C 67.685 283.705,65.580 281.178,64.681 281.659 C 63.761 282.151,63.548 283.031,64.301 283.228 C 65.032 283.419,65.397 284.465,65.118 285.573 C 64.937 286.297,64.778 286.333,61.797 286.333 L 58.667 286.333 58.667 284.833 C 58.667 283.556,58.765 283.333,59.333 283.333 C 59.958 283.333,60.000 283.111,60.000 279.833 C 60.000 276.556,59.958 276.333,59.333 276.333 C 58.755 276.333,58.667 276.111,58.667 274.654 L 58.667 272.975 61.750 273.071 L 64.833 273.167 64.940 274.474 M140.567 273.653 C 143.021 275.149,143.423 278.970,141.312 280.732 L 140.206 281.655 140.994 282.494 C 141.428 282.956,142.132 283.333,142.558 283.333 C 143.255 283.333,143.333 283.486,143.333 284.833 L 143.333 286.333 140.500 286.333 L 137.667 286.333 137.667 285.192 C 137.667 283.966,136.314 282.000,135.470 282.000 C 134.744 282.000,134.913 283.233,135.667 283.430 C 136.196 283.568,136.333 283.885,136.333 284.969 L 136.333 286.333 132.815 286.333 L 129.297 286.333 129.398 284.750 C 129.490 283.323,129.574 283.177,130.250 283.271 C 130.989 283.374,131.000 283.320,131.000 279.688 L 131.000 276.000 130.167 276.000 C 129.401 276.000,129.333 275.878,129.333 274.500 L 129.333 273.000 134.417 273.001 C 138.870 273.002,139.632 273.083,140.567 273.653 M160.905 273.652 C 162.412 274.337,162.911 275.314,162.530 276.833 C 162.246 277.965,159.385 278.104,159.097 277.000 C 158.868 276.126,156.101 276.015,155.774 276.867 C 155.507 277.564,156.216 277.988,157.667 277.997 C 161.791 278.021,164.228 280.880,162.879 284.110 C 161.840 286.595,156.622 287.581,153.321 285.917 L 151.833 285.167 151.833 283.333 L 151.833 281.500 153.378 281.400 C 154.836 281.306,154.943 281.357,155.278 282.317 C 155.825 283.886,159.333 283.712,159.333 282.116 C 159.333 281.651,157.342 281.005,155.903 281.002 C 151.590 280.993,150.196 275.772,153.974 273.774 C 155.848 272.783,158.873 272.730,160.905 273.652 M187.833 273.765 C 189.144 274.505,189.168 274.554,189.266 276.610 L 189.366 278.703 187.600 278.601 C 185.875 278.502,185.831 278.475,185.729 277.417 C 185.581 275.883,183.461 275.821,181.974 277.308 C 179.024 280.258,182.463 284.579,186.363 282.820 L 187.683 282.225 188.675 283.175 C 190.049 284.491,189.931 284.908,187.917 285.845 C 181.299 288.926,174.748 283.158,177.638 276.795 C 179.190 273.376,184.404 271.827,187.833 273.765 M197.333 274.500 C 197.333 275.878,197.265 276.000,196.500 276.000 C 194.861 276.000,195.426 282.268,197.135 283.046 C 199.331 284.047,200.277 282.845,200.424 278.870 C 200.528 276.068,200.512 276.000,199.765 276.000 C 199.081 276.000,199.000 275.842,199.000 274.500 L 199.000 273.000 202.500 273.000 L 206.000 273.000 206.000 274.500 C 206.000 275.863,205.927 276.000,205.196 276.000 C 204.403 276.000,204.391 276.050,204.279 279.583 C 204.109 284.988,202.332 286.874,197.659 286.610 C 192.921 286.342,191.739 284.298,191.669 276.250 C 191.668 276.112,191.367 276.000,191.000 276.000 C 190.432 276.000,190.333 275.778,190.333 274.500 L 190.333 273.000 193.833 273.000 L 197.333 273.000 197.333 274.500 M218.234 273.653 C 220.687 275.149,221.089 278.970,218.978 280.732 L 217.873 281.655 218.661 282.494 C 219.095 282.956,219.798 283.333,220.225 283.333 C 220.921 283.333,221.000 283.486,221.000 284.833 L 221.000 286.333 218.167 286.333 L 215.333 286.333 215.333 285.192 C 215.333 283.966,213.981 282.000,213.137 282.000 C 212.411 282.000,212.580 283.233,213.333 283.430 C 213.863 283.568,214.000 283.885,214.000 284.969 L 214.000 286.333 210.482 286.333 L 206.963 286.333 207.065 284.750 C 207.150 283.423,207.274 283.167,207.833 283.167 C 208.453 283.167,208.507 282.913,208.595 279.583 L 208.689 276.000 207.845 276.000 C 207.066 276.000,207.000 275.883,207.000 274.500 L 207.000 273.000 212.083 273.001 C 216.537 273.002,217.299 273.083,218.234 273.653 M229.167 274.500 C 229.167 275.629,229.052 275.850,228.417 275.940 C 227.691 276.043,227.667 276.166,227.667 279.667 C 227.667 283.167,227.691 283.290,228.417 283.393 C 229.052 283.484,229.167 283.704,229.167 284.833 L 229.167 286.167 225.667 286.167 L 222.167 286.167 222.167 284.833 C 222.167 283.704,222.282 283.484,222.917 283.393 C 223.642 283.290,223.667 283.169,223.667 279.624 C 223.667 277.509,223.539 276.040,223.363 276.148 C 222.644 276.593,222.000 275.902,222.000 274.687 C 222.000 272.981,222.036 272.966,225.816 273.072 L 229.167 273.167 229.167 274.500 M243.367 273.667 C 243.385 274.033,243.400 275.083,243.400 276.000 C 243.400 276.917,243.385 277.817,243.367 278.000 C 243.272 278.950,240.319 278.344,240.117 277.333 C 239.626 274.879,239.000 276.280,239.000 279.833 L 239.000 283.333 239.833 283.333 C 240.599 283.333,240.667 283.456,240.667 284.833 L 240.667 286.333 237.210 286.333 L 233.754 286.333 233.556 285.115 C 233.323 283.679,233.478 283.333,234.353 283.333 C 234.952 283.333,235.000 283.076,235.000 279.833 C 235.000 276.944,234.913 276.333,234.500 276.333 C 234.165 276.333,234.000 276.669,234.000 277.352 C 234.000 278.358,233.982 278.369,232.417 278.268 L 230.833 278.167 230.736 275.583 L 230.639 273.000 236.986 273.000 C 243.100 273.000,243.335 273.025,243.367 273.667 M251.333 274.472 C 251.333 275.340,251.165 276.000,250.924 276.081 C 250.627 276.180,250.685 276.478,251.135 277.165 L 251.756 278.113 252.241 277.186 C 252.591 276.518,252.625 276.159,252.363 275.897 C 251.964 275.497,251.886 274.351,252.202 273.527 C 252.368 273.095,253.004 273.000,255.721 273.000 L 259.038 273.000 258.936 274.403 C 258.852 275.547,258.693 275.840,258.072 275.987 C 257.156 276.203,253.667 281.417,253.667 282.569 C 253.667 283.162,253.853 283.333,254.500 283.333 C 255.266 283.333,255.333 283.455,255.333 284.845 L 255.333 286.356 251.750 286.261 L 248.167 286.167 248.061 285.062 C 247.949 283.896,248.514 282.866,249.075 283.213 C 249.618 283.549,249.966 282.620,249.629 281.733 C 249.029 280.156,245.982 276.168,245.239 275.987 C 244.734 275.864,244.466 275.511,244.392 274.875 C 244.185 273.096,244.368 273.000,247.990 273.000 L 251.333 273.000 251.333 274.472 M278.937 274.085 C 280.237 274.945,280.320 275.095,280.246 276.419 L 280.167 277.833 278.582 277.935 C 277.146 278.027,276.967 277.957,276.674 277.185 C 276.158 275.828,273.394 275.935,272.196 277.359 C 269.762 280.252,272.395 284.143,276.149 283.201 C 277.745 282.800,277.250 281.719,275.417 281.602 C 273.846 281.501,273.833 281.490,273.729 280.238 L 273.625 278.976 277.063 279.071 L 280.500 279.167 280.599 281.451 C 280.923 288.894,268.474 288.646,267.451 281.190 C 266.570 274.757,273.487 270.479,278.937 274.085 M292.900 273.653 C 295.354 275.149,295.756 278.970,293.645 280.732 L 292.539 281.655 293.328 282.494 C 293.761 282.956,294.465 283.333,294.891 283.333 C 295.588 283.333,295.667 283.486,295.667 284.833 L 295.667 286.333 292.833 286.333 L 290.000 286.333 290.000 285.192 C 290.000 283.966,288.647 282.000,287.804 282.000 C 287.077 282.000,287.247 283.233,288.000 283.430 C 288.530 283.568,288.667 283.885,288.667 284.969 L 288.667 286.333 285.148 286.333 L 281.630 286.333 281.732 284.750 C 281.817 283.423,281.941 283.167,282.500 283.167 C 283.119 283.167,283.173 282.913,283.261 279.583 L 283.356 276.000 282.511 276.000 C 281.732 276.000,281.667 275.883,281.667 274.500 L 281.667 273.000 286.750 273.001 C 291.204 273.002,291.966 273.083,292.900 273.653 M307.167 273.627 C 311.833 275.770,312.219 282.956,307.814 285.678 C 304.866 287.500,299.207 286.631,297.389 284.078 C 293.013 277.932,300.084 270.375,307.167 273.627 M318.000 274.500 C 318.000 275.878,317.932 276.000,317.167 276.000 C 316.351 276.000,316.333 276.054,316.333 278.517 C 316.333 282.439,317.767 284.195,319.963 282.963 C 321.570 282.061,322.038 276.000,320.500 276.000 C 319.735 276.000,319.667 275.878,319.667 274.500 L 319.667 273.000 323.167 273.000 L 326.667 273.000 326.667 274.500 C 326.667 275.878,326.599 276.000,325.833 276.000 L 325.000 276.000 325.000 279.350 C 325.000 284.795,323.529 286.500,318.833 286.500 C 314.228 286.500,312.943 285.074,312.674 279.667 C 312.509 276.352,312.460 276.161,311.750 276.060 C 311.101 275.968,311.000 275.755,311.000 274.477 L 311.000 273.000 314.500 273.000 L 318.000 273.000 318.000 274.500 M338.937 273.675 C 343.247 276.303,340.790 282.000,335.347 282.000 C 333.556 282.000,333.333 282.074,333.333 282.667 C 333.333 283.156,333.556 283.333,334.167 283.333 C 334.933 283.333,335.000 283.455,335.000 284.845 L 335.000 286.356 331.417 286.261 L 327.833 286.167 327.833 284.833 C 327.833 283.704,327.948 283.484,328.583 283.393 C 329.657 283.241,329.774 276.000,328.702 276.000 C 327.984 276.000,327.667 275.379,327.667 273.973 L 327.667 273.000 332.750 273.001 C 337.261 273.002,337.958 273.078,338.937 273.675 M106.667 277.150 L 106.667 278.333 108.250 278.328 C 111.532 278.318,111.838 276.236,108.583 276.067 L 106.667 275.967 106.667 277.150 M135.000 277.517 L 135.000 279.035 136.750 278.934 C 139.705 278.764,139.431 276.000,136.459 276.000 L 135.000 276.000 135.000 277.517 M212.667 277.517 L 212.667 279.035 214.417 278.934 C 217.372 278.764,217.098 276.000,214.126 276.000 L 212.667 276.000 212.667 277.517 M287.333 277.517 L 287.333 279.035 289.083 278.934 C 292.038 278.764,291.764 276.000,288.793 276.000 L 287.333 276.000 287.333 277.517 M301.767 276.671 C 299.954 277.401,299.476 280.403,300.917 282.015 C 303.552 284.964,307.919 282.296,306.667 278.502 C 306.026 276.559,303.961 275.787,301.767 276.671 M333.333 277.482 L 333.333 278.667 335.010 278.667 C 337.882 278.667,337.764 276.587,334.883 276.398 L 333.333 276.297 333.333 277.482 M106.667 282.183 L 106.667 283.365 108.750 283.266 C 112.271 283.098,111.964 281.015,108.417 281.005 L 106.667 281.000 106.667 282.183 " stroke="none" fill="#93a3f3" fill-rule="evenodd"></path><path id="path2" d="M259.000 93.771 C 259.000 93.828,259.487 94.316,260.083 94.854 L 261.167 95.833 260.188 94.750 C 259.275 93.740,259.000 93.513,259.000 93.771 M262.667 97.438 C 262.667 97.495,263.154 97.983,263.750 98.521 L 264.833 99.500 263.854 98.417 C 262.942 97.407,262.667 97.180,262.667 97.438 M248.411 126.667 C 248.411 127.308,248.479 127.571,248.563 127.250 C 248.647 126.929,248.647 126.404,248.563 126.083 C 248.479 125.763,248.411 126.025,248.411 126.667 M170.217 128.917 C 170.132 129.054,171.660 129.127,173.614 129.079 C 180.168 128.917,180.873 128.793,175.603 128.730 C 172.726 128.695,170.303 128.779,170.217 128.917 M177.410 149.410 L 177.333 156.654 170.083 156.750 L 162.833 156.847 170.094 156.924 C 175.729 156.983,177.391 156.905,177.517 156.575 C 177.607 156.341,177.637 153.003,177.583 149.158 L 177.486 142.167 177.410 149.410 M217.577 144.241 C 217.880 144.455,218.014 146.768,218.086 153.016 L 218.184 161.500 218.176 152.861 C 218.168 145.470,218.094 144.202,217.667 144.086 C 217.303 143.986,217.278 144.028,217.577 144.241 M153.083 149.230 C 153.404 149.314,153.929 149.314,154.250 149.230 C 154.571 149.146,154.308 149.077,153.667 149.077 C 153.025 149.077,152.762 149.146,153.083 149.230 M114.757 155.000 C 114.757 155.825,114.822 156.162,114.902 155.750 C 114.981 155.337,114.981 154.662,114.902 154.250 C 114.822 153.837,114.757 154.175,114.757 155.000 M114.770 161.500 C 114.772 162.600,114.834 163.010,114.908 162.411 C 114.982 161.812,114.981 160.912,114.905 160.411 C 114.829 159.910,114.768 160.400,114.770 161.500 M166.583 160.916 C 168.646 160.974,172.021 160.974,174.083 160.916 C 176.146 160.857,174.458 160.809,170.333 160.809 C 166.208 160.809,164.521 160.857,166.583 160.916 M225.732 160.915 C 227.692 160.974,230.992 160.974,233.065 160.916 C 235.138 160.857,233.533 160.809,229.500 160.809 C 225.467 160.808,223.771 160.856,225.732 160.915 M199.083 166.239 C 199.588 166.315,200.412 166.315,200.917 166.239 C 201.421 166.162,201.008 166.100,200.000 166.100 C 198.992 166.100,198.579 166.162,199.083 166.239 M248.411 191.000 C 248.411 191.642,248.479 191.904,248.563 191.583 C 248.647 191.262,248.647 190.737,248.563 190.417 C 248.479 190.096,248.411 190.358,248.411 191.000 M197.250 243.580 C 198.396 243.645,200.271 243.645,201.417 243.580 C 202.563 243.515,201.625 243.462,199.333 243.462 C 197.042 243.462,196.104 243.515,197.250 243.580 M311.131 273.472 C 311.032 273.731,311.004 274.369,311.070 274.889 C 311.168 275.660,311.220 275.573,311.354 274.417 C 311.522 272.959,311.448 272.645,311.131 273.472 M129.417 274.500 C 129.421 275.233,129.489 275.494,129.569 275.079 C 129.649 274.665,129.646 274.065,129.562 273.746 C 129.479 273.427,129.414 273.767,129.417 274.500 M205.751 274.500 C 205.754 275.233,205.823 275.494,205.902 275.079 C 205.982 274.665,205.979 274.065,205.896 273.746 C 205.812 273.427,205.747 273.767,205.751 274.500 M207.084 274.500 C 207.088 275.233,207.156 275.494,207.236 275.079 C 207.315 274.665,207.312 274.065,207.229 273.746 C 207.146 273.427,207.080 273.767,207.084 274.500 M281.751 274.500 C 281.754 275.233,281.823 275.494,281.902 275.079 C 281.982 274.665,281.979 274.065,281.896 273.746 C 281.812 273.427,281.747 273.767,281.751 274.500 M251.084 274.833 C 251.088 275.567,251.156 275.827,251.236 275.413 C 251.315 274.998,251.312 274.398,251.229 274.079 C 251.146 273.761,251.080 274.100,251.084 274.833 M197.026 274.893 C 197.009 275.383,196.755 275.655,196.250 275.727 C 195.551 275.826,195.499 276.002,195.479 278.333 L 195.458 280.833 195.576 278.417 C 195.682 276.266,195.768 276.000,196.358 276.000 C 197.069 276.000,197.505 275.292,197.224 274.594 C 197.130 274.359,197.041 274.494,197.026 274.893 M107.755 275.906 C 108.261 275.982,109.011 275.980,109.421 275.901 C 109.831 275.822,109.417 275.760,108.500 275.762 C 107.583 275.765,107.248 275.829,107.755 275.906 M60.118 278.833 C 60.117 280.483,60.174 281.200,60.244 280.427 C 60.313 279.653,60.314 278.303,60.245 277.427 C 60.177 276.550,60.119 277.183,60.118 278.833 M230.744 277.000 C 230.744 277.642,230.813 277.904,230.896 277.583 C 230.980 277.262,230.980 276.737,230.896 276.417 C 230.813 276.096,230.744 276.358,230.744 277.000 M334.254 276.236 C 334.669 276.315,335.269 276.312,335.587 276.229 C 335.906 276.146,335.567 276.080,334.833 276.084 C 334.100 276.088,333.839 276.156,334.254 276.236 M227.445 278.667 C 227.445 280.042,227.504 280.604,227.576 279.917 C 227.648 279.229,227.648 278.104,227.576 277.417 C 227.504 276.729,227.445 277.292,227.445 278.667 M333.077 277.667 C 333.077 278.308,333.146 278.571,333.230 278.250 C 333.314 277.929,333.314 277.404,333.230 277.083 C 333.146 276.762,333.077 277.025,333.077 277.667 M340.744 277.667 C 340.744 278.308,340.813 278.571,340.896 278.250 C 340.980 277.929,340.980 277.404,340.896 277.083 C 340.813 276.762,340.744 277.025,340.744 277.667 M160.250 277.569 C 160.662 277.648,161.337 277.648,161.750 277.569 C 162.162 277.489,161.825 277.424,161.000 277.424 C 160.175 277.424,159.837 277.489,160.250 277.569 M223.776 279.833 C 223.778 281.117,223.838 281.601,223.910 280.909 C 223.982 280.218,223.981 279.168,223.907 278.576 C 223.834 277.984,223.775 278.550,223.776 279.833 M232.083 278.230 C 232.404 278.314,232.929 278.314,233.250 278.230 C 233.571 278.146,233.308 278.077,232.667 278.077 C 232.025 278.077,231.762 278.146,232.083 278.230 M177.084 279.833 C 177.088 280.567,177.156 280.827,177.236 280.413 C 177.315 279.998,177.312 279.398,177.229 279.079 C 177.146 278.761,177.080 279.100,177.084 279.833 M235.077 282.333 C 235.077 282.975,235.146 283.237,235.230 282.917 C 235.314 282.596,235.314 282.071,235.230 281.750 C 235.146 281.429,235.077 281.692,235.077 282.333 M97.000 282.427 C 97.000 282.838,96.588 282.994,95.250 283.088 L 93.500 283.210 95.260 283.272 C 96.934 283.330,97.874 282.763,97.208 282.097 C 97.094 281.982,97.000 282.131,97.000 282.427 M134.772 282.641 C 134.806 283.085,135.058 283.508,135.333 283.583 C 135.664 283.672,135.705 283.624,135.455 283.442 C 135.247 283.291,134.995 282.867,134.894 282.500 C 134.749 281.974,134.723 282.004,134.772 282.641 M173.000 282.427 C 173.000 282.838,172.588 282.994,171.250 283.088 L 169.500 283.210 171.260 283.272 C 172.934 283.330,173.874 282.763,173.208 282.097 C 173.094 281.982,173.000 282.131,173.000 282.427 M212.438 282.641 C 212.472 283.085,212.725 283.508,213.000 283.583 C 213.330 283.672,213.372 283.624,213.122 283.442 C 212.914 283.291,212.661 282.867,212.560 282.500 C 212.416 281.974,212.390 282.004,212.438 282.641 M287.105 282.641 C 287.139 283.085,287.392 283.508,287.667 283.583 C 287.997 283.672,288.038 283.624,287.789 283.442 C 287.581 283.291,287.328 282.867,287.227 282.500 C 287.082 281.974,287.057 282.004,287.105 282.641 M80.923 283.242 C 81.522 283.316,82.422 283.314,82.923 283.238 C 83.424 283.162,82.933 283.101,81.833 283.103 C 80.733 283.105,80.324 283.167,80.923 283.242 M122.256 283.242 C 122.855 283.316,123.755 283.314,124.256 283.238 C 124.757 283.162,124.267 283.101,123.167 283.103 C 122.067 283.105,121.657 283.167,122.256 283.242 M107.589 283.575 C 108.188 283.649,109.088 283.648,109.589 283.572 C 110.090 283.495,109.600 283.435,108.500 283.437 C 107.400 283.438,106.990 283.501,107.589 283.575 M143.091 285.000 C 143.091 285.825,143.156 286.162,143.235 285.750 C 143.315 285.337,143.315 284.662,143.235 284.250 C 143.156 283.837,143.091 284.175,143.091 285.000 M220.757 285.000 C 220.757 285.825,220.822 286.162,220.902 285.750 C 220.981 285.337,220.981 284.662,220.902 284.250 C 220.822 283.837,220.757 284.175,220.757 285.000 M295.424 285.000 C 295.424 285.825,295.489 286.162,295.569 285.750 C 295.648 285.337,295.648 284.662,295.569 284.250 C 295.489 283.837,295.424 284.175,295.424 285.000 M88.077 285.000 C 88.077 285.642,88.146 285.904,88.230 285.583 C 88.314 285.262,88.314 284.737,88.230 284.417 C 88.146 284.096,88.077 284.358,88.077 285.000 M164.077 285.000 C 164.077 285.642,164.146 285.904,164.230 285.583 C 164.314 285.262,164.314 284.737,164.230 284.417 C 164.146 284.096,164.077 284.358,164.077 285.000 " stroke="none" fill="#4c547d" fill-rule="evenodd"></path><path id="path3" d="M195.088 70.573 C 195.595 70.649,196.345 70.647,196.755 70.568 C 197.165 70.489,196.750 70.426,195.833 70.429 C 194.917 70.431,194.581 70.496,195.088 70.573 M202.250 70.569 C 202.662 70.648,203.338 70.648,203.750 70.569 C 204.162 70.489,203.825 70.424,203.000 70.424 C 202.175 70.424,201.838 70.489,202.250 70.569 M194.750 74.563 C 195.071 74.647,195.596 74.647,195.917 74.563 C 196.237 74.479,195.975 74.411,195.333 74.411 C 194.692 74.411,194.429 74.479,194.750 74.563 M202.750 74.563 C 203.071 74.647,203.596 74.647,203.917 74.563 C 204.237 74.479,203.975 74.411,203.333 74.411 C 202.692 74.411,202.429 74.479,202.750 74.563 M167.479 133.750 L 166.500 134.833 167.583 133.854 C 168.593 132.942,168.820 132.667,168.562 132.667 C 168.505 132.667,168.017 133.154,167.479 133.750 M222.476 149.500 C 222.476 153.717,222.524 155.396,222.582 153.231 C 222.641 151.067,222.640 147.617,222.582 145.565 C 222.524 143.512,222.476 145.283,222.476 149.500 M181.811 152.333 C 181.811 156.825,181.858 158.662,181.916 156.417 C 181.973 154.171,181.973 150.496,181.916 148.250 C 181.858 146.004,181.811 147.842,181.811 152.333 M239.146 152.417 L 238.167 153.500 239.250 152.521 C 239.846 151.983,240.333 151.495,240.333 151.438 C 240.333 151.180,240.058 151.407,239.146 152.417 M189.140 162.833 C 189.140 166.500,189.188 168.045,189.248 166.268 C 189.308 164.490,189.308 161.490,189.249 159.601 C 189.189 157.712,189.140 159.167,189.140 162.833 M283.762 161.833 C 283.765 162.750,283.829 163.085,283.906 162.579 C 283.982 162.072,283.980 161.322,283.901 160.912 C 283.822 160.502,283.760 160.917,283.762 161.833 M287.757 161.667 C 287.757 162.492,287.822 162.829,287.902 162.417 C 287.981 162.004,287.981 161.329,287.902 160.917 C 287.822 160.504,287.757 160.842,287.757 161.667 M194.917 170.583 C 197.529 170.639,201.804 170.639,204.417 170.583 C 207.029 170.526,204.892 170.480,199.667 170.480 C 194.442 170.480,192.304 170.526,194.917 170.583 M189.667 176.104 C 189.667 176.162,190.154 176.649,190.750 177.188 L 191.833 178.167 190.854 177.083 C 189.942 176.074,189.667 175.847,189.667 176.104 M170.551 193.250 C 170.465 193.387,172.144 193.461,174.281 193.413 C 181.450 193.252,182.210 193.129,176.436 193.064 C 173.285 193.029,170.636 193.112,170.551 193.250 M220.750 193.248 C 222.354 193.309,224.979 193.309,226.583 193.248 C 228.188 193.187,226.875 193.137,223.667 193.137 C 220.458 193.137,219.146 193.187,220.750 193.248 M261.660 221.583 L 258.500 224.833 261.750 221.673 C 264.769 218.738,265.152 218.333,264.910 218.333 C 264.861 218.333,263.398 219.796,261.660 221.583 M136.500 221.333 C 137.773 222.617,138.890 223.667,138.982 223.667 C 139.074 223.667,138.107 222.617,136.833 221.333 C 135.560 220.050,134.443 219.000,134.351 219.000 C 134.260 219.000,135.227 220.050,136.500 221.333 M327.751 274.167 C 327.754 274.900,327.823 275.161,327.902 274.746 C 327.982 274.331,327.979 273.731,327.896 273.413 C 327.812 273.094,327.747 273.433,327.751 274.167 M99.744 274.333 C 99.744 274.975,99.813 275.237,99.896 274.917 C 99.980 274.596,99.980 274.071,99.896 273.750 C 99.813 273.429,99.744 273.692,99.744 274.333 M175.744 274.333 C 175.744 274.975,175.813 275.237,175.896 274.917 C 175.980 274.596,175.980 274.071,175.896 273.750 C 175.813 273.429,175.744 273.692,175.744 274.333 M229.084 274.500 C 229.088 275.233,229.156 275.494,229.236 275.079 C 229.315 274.665,229.312 274.065,229.229 273.746 C 229.146 273.427,229.080 273.767,229.084 274.500 M252.077 274.667 C 252.077 275.308,252.146 275.571,252.230 275.250 C 252.314 274.929,252.314 274.404,252.230 274.083 C 252.146 273.762,252.077 274.025,252.077 274.667 M279.547 274.667 C 279.757 274.942,280.002 275.467,280.092 275.833 C 280.248 276.467,280.258 276.464,280.295 275.791 C 280.316 275.401,280.071 274.876,279.750 274.624 C 279.243 274.226,279.216 274.232,279.547 274.667 M162.411 276.000 C 162.411 276.642,162.479 276.904,162.563 276.583 C 162.647 276.262,162.647 275.737,162.563 275.417 C 162.479 275.096,162.411 275.358,162.411 276.000 M80.417 276.230 C 80.737 276.314,81.262 276.314,81.583 276.230 C 81.904 276.146,81.642 276.077,81.000 276.077 C 80.358 276.077,80.096 276.146,80.417 276.230 M93.750 276.230 C 94.071 276.314,94.596 276.314,94.917 276.230 C 95.237 276.146,94.975 276.077,94.333 276.077 C 93.692 276.077,93.429 276.146,93.750 276.230 M121.750 276.230 C 122.071 276.314,122.596 276.314,122.917 276.230 C 123.237 276.146,122.975 276.077,122.333 276.077 C 121.692 276.077,121.429 276.146,121.750 276.230 M169.750 276.230 C 170.071 276.314,170.596 276.314,170.917 276.230 C 171.237 276.146,170.975 276.077,170.333 276.077 C 169.692 276.077,169.429 276.146,169.750 276.230 M235.112 278.667 C 235.112 280.042,235.171 280.604,235.243 279.917 C 235.315 279.229,235.315 278.104,235.243 277.417 C 235.171 276.729,235.112 277.292,235.112 278.667 M200.411 277.667 C 200.411 278.308,200.479 278.571,200.563 278.250 C 200.647 277.929,200.647 277.404,200.563 277.083 C 200.479 276.762,200.411 277.025,200.411 277.667 M76.109 279.167 C 76.111 280.450,76.171 280.934,76.243 280.243 C 76.315 279.551,76.314 278.501,76.241 277.909 C 76.167 277.317,76.108 277.883,76.109 279.167 M117.443 279.167 C 117.444 280.450,117.504 280.934,117.577 280.243 C 117.649 279.551,117.648 278.501,117.574 277.909 C 117.500 277.317,117.441 277.883,117.443 279.167 M191.770 278.833 C 191.772 279.933,191.834 280.343,191.908 279.744 C 191.982 279.145,191.981 278.245,191.905 277.744 C 191.829 277.243,191.768 277.733,191.770 278.833 M333.917 278.902 C 334.329 278.981,335.004 278.981,335.417 278.902 C 335.829 278.822,335.492 278.757,334.667 278.757 C 333.842 278.757,333.504 278.822,333.917 278.902 M280.445 281.667 C 280.445 283.042,280.504 283.604,280.576 282.917 C 280.648 282.229,280.648 281.104,280.576 280.417 C 280.504 279.729,280.445 280.292,280.445 281.667 M248.084 284.833 C 248.088 285.567,248.156 285.827,248.236 285.413 C 248.315 284.998,248.312 284.398,248.229 284.079 C 248.146 283.761,248.080 284.100,248.084 284.833 M240.411 285.333 C 240.411 285.975,240.479 286.237,240.563 285.917 C 240.647 285.596,240.647 285.071,240.563 284.750 C 240.479 284.429,240.411 284.692,240.411 285.333 " stroke="none" fill="#626a9e" fill-rule="evenodd"></path><path id="path4" d="M114.767 158.000 C 114.767 159.008,114.829 159.421,114.905 158.917 C 114.982 158.412,114.982 157.587,114.905 157.083 C 114.829 156.579,114.767 156.992,114.767 158.000 " stroke="none" fill="#545c8b" fill-rule="evenodd"></path></g></svg>