<?xml version="1.0" encoding="iso-8859-1"?>
<!-- Generator: Adobe Illustrator 19.0.0, SVG Export Plug-In . SVG Version: 6.00 Build 0)  -->
<svg version="1.1" id="Layer_1" xmlns="http://www.w3.org/2000/svg" xmlns:xlink="http://www.w3.org/1999/xlink" x="0px" y="0px"
	 viewBox="0 0 512 512" style="enable-background:new 0 0 512 512;" xml:space="preserve">
<g>
	<path style="fill:#E8EDEE;" d="M423.724,264.828c18.838,12.8,46.848,30.023,88.276,35.31V105.931H0v386.754
		C0,503.358,8.642,512,19.306,512h104.28h264.828h35.31c-11.9-4.67-24.382-9.066-35.31-17.655
		c-34.648-27.224-52.966-68.22-52.966-114.759v-79.448C376.876,294.85,404.886,277.628,423.724,264.828"/>
	<path style="fill:#B1BBBC;" d="M256,512H15.448C6.912,512,0,505.088,0,496.552V353.103h256V512z"/>
	<path style="fill:#546A79;" d="M512,105.931H0V16.525C0,7.398,7.398,0,16.525,0h478.949C504.602,0,512,7.398,512,16.525V105.931z"
		/>
	<path style="fill:#ECBA16;" d="M423.724,512c-11.9-4.67-24.382-9.066-35.31-17.655c-34.648-27.233-52.966-68.22-52.966-114.759
		v-79.448c41.428-5.288,69.438-22.51,88.276-35.31c18.838,12.8,46.848,30.023,88.276,35.31v79.448
		c0,46.539-18.326,87.526-52.966,114.759C448.097,502.934,435.624,507.33,423.724,512"/>
	<path style="fill:#FFFFFF;" d="M379.586,414.897c-4.873,0-8.828-3.955-8.828-8.828v-61.793c0-3.346,1.889-6.4,4.882-7.901
		l35.31-17.655c4.361-2.189,9.666-0.406,11.847,3.955c2.18,4.361,0.406,9.657-3.955,11.847l-30.429,15.21v56.338
		C388.414,410.942,384.459,414.897,379.586,414.897"/>
	<path style="fill:#ED7161;" d="M79.448,52.966c0,14.627-11.855,26.483-26.483,26.483S26.483,67.593,26.483,52.966
		s11.855-26.483,26.483-26.483S79.448,38.338,79.448,52.966"/>
	<path style="fill:#ECBA16;" d="M158.897,52.966c0,14.627-11.855,26.483-26.483,26.483s-26.483-11.855-26.483-26.483
		s11.855-26.483,26.483-26.483S158.897,38.338,158.897,52.966"/>
	<path style="fill:#42B05C;" d="M238.345,52.966c0,14.627-11.855,26.483-26.483,26.483c-14.627,0-26.483-11.855-26.483-26.483
		s11.855-26.483,26.483-26.483C226.489,26.483,238.345,38.338,238.345,52.966"/>
	<g>
		<path style="fill:#FFFFFF;" d="M105.931,441.379H35.31c-4.873,0-8.828-3.955-8.828-8.828s3.955-8.828,8.828-8.828h70.621
			c4.873,0,8.828,3.955,8.828,8.828S110.804,441.379,105.931,441.379"/>
		<path style="fill:#FFFFFF;" d="M220.69,441.379h-61.793c-4.873,0-8.828-3.955-8.828-8.828s3.955-8.828,8.828-8.828h61.793
			c4.873,0,8.828,3.955,8.828,8.828S225.562,441.379,220.69,441.379"/>
	</g>
	<path style="fill:#546A79;" d="M335.448,379.586v-26.483H256V512h167.724c-11.9-4.67-24.382-9.066-35.31-17.655
		C353.766,467.121,335.448,426.125,335.448,379.586"/>
	<path style="fill:#7383BF;" d="M158.897,150.069H44.138c-4.873,0-8.828-3.955-8.828-8.828s3.955-8.828,8.828-8.828h114.759
		c4.873,0,8.828,3.955,8.828,8.828S163.769,150.069,158.897,150.069"/>
	<path style="fill:#DD342E;" d="M282.483,150.069h-88.276c-4.873,0-8.828-3.955-8.828-8.828s3.955-8.828,8.828-8.828h88.276
		c4.873,0,8.828,3.955,8.828,8.828S287.356,150.069,282.483,150.069"/>
	<path style="fill:#42B05C;" d="M467.862,150.069h-97.103c-4.873,0-8.828-3.955-8.828-8.828s3.955-8.828,8.828-8.828h97.103
		c4.873,0,8.828,3.955,8.828,8.828S472.735,150.069,467.862,150.069"/>
	<path style="fill:#ECBA16;" d="M335.448,150.069h-17.655c-4.873,0-8.828-3.955-8.828-8.828s3.955-8.828,8.828-8.828h17.655
		c4.873,0,8.828,3.955,8.828,8.828S340.321,150.069,335.448,150.069"/>
	<path style="fill:#7383BF;" d="M361.931,185.379H247.172c-4.873,0-8.828-3.955-8.828-8.828c0-4.873,3.955-8.828,8.828-8.828
		h114.759c4.873,0,8.828,3.955,8.828,8.828C370.759,181.425,366.804,185.379,361.931,185.379"/>
	<path style="fill:#42B05C;" d="M211.862,185.379H88.276c-4.873,0-8.828-3.955-8.828-8.828c0-4.873,3.955-8.828,8.828-8.828h123.586
		c4.873,0,8.828,3.955,8.828,8.828C220.69,181.425,216.735,185.379,211.862,185.379"/>
	<path style="fill:#DD342E;" d="M52.966,185.379h-8.828c-4.873,0-8.828-3.955-8.828-8.828c0-4.873,3.955-8.828,8.828-8.828h8.828
		c4.873,0,8.828,3.955,8.828,8.828C61.793,181.425,57.838,185.379,52.966,185.379"/>
	<path style="fill:#ECBA16;" d="M123.586,220.69H44.138c-4.873,0-8.828-3.955-8.828-8.828c0-4.873,3.955-8.828,8.828-8.828h79.448
		c4.873,0,8.828,3.955,8.828,8.828C132.414,216.735,128.459,220.69,123.586,220.69"/>
	<path style="fill:#DD342E;" d="M176.552,220.69h-17.655c-4.873,0-8.828-3.955-8.828-8.828c0-4.873,3.955-8.828,8.828-8.828h17.655
		c4.873,0,8.828,3.955,8.828,8.828C185.379,216.735,181.425,220.69,176.552,220.69"/>
	<g>
		<path style="fill:#42B05C;" d="M335.448,220.69H211.862c-4.873,0-8.828-3.955-8.828-8.828c0-4.873,3.955-8.828,8.828-8.828
			h123.586c4.873,0,8.828,3.955,8.828,8.828C344.276,216.735,340.321,220.69,335.448,220.69"/>
		<path style="fill:#42B05C;" d="M158.897,256H44.138c-4.873,0-8.828-3.955-8.828-8.828c0-4.873,3.955-8.828,8.828-8.828h114.759
			c4.873,0,8.828,3.955,8.828,8.828C167.724,252.045,163.769,256,158.897,256"/>
	</g>
	<path style="fill:#ECBA16;" d="M282.483,256h-88.276c-4.873,0-8.828-3.955-8.828-8.828c0-4.873,3.955-8.828,8.828-8.828h88.276
		c4.873,0,8.828,3.955,8.828,8.828C291.31,252.045,287.356,256,282.483,256"/>
	<path style="fill:#42B05C;" d="M282.483,291.31h-35.31c-4.873,0-8.828-3.955-8.828-8.828c0-4.873,3.955-8.828,8.828-8.828h35.31
		c4.873,0,8.828,3.955,8.828,8.828C291.31,287.356,287.356,291.31,282.483,291.31"/>
	<path style="fill:#DD342E;" d="M211.862,291.31H88.276c-4.873,0-8.828-3.955-8.828-8.828c0-4.873,3.955-8.828,8.828-8.828h123.586
		c4.873,0,8.828,3.955,8.828,8.828C220.69,287.356,216.735,291.31,211.862,291.31"/>
	<path style="fill:#ECBA16;" d="M52.966,291.31h-8.828c-4.873,0-8.828-3.955-8.828-8.828c0-4.873,3.955-8.828,8.828-8.828h8.828
		c4.873,0,8.828,3.955,8.828,8.828C61.793,287.356,57.838,291.31,52.966,291.31"/>
	<path style="fill:#42B05C;" d="M123.586,326.621H44.138c-4.873,0-8.828-3.955-8.828-8.828c0-4.873,3.955-8.828,8.828-8.828h79.448
		c4.873,0,8.828,3.955,8.828,8.828C132.414,322.666,128.459,326.621,123.586,326.621"/>
	<path style="fill:#ECBA16;" d="M176.552,326.621h-17.655c-4.873,0-8.828-3.955-8.828-8.828c0-4.873,3.955-8.828,8.828-8.828h17.655
		c4.873,0,8.828,3.955,8.828,8.828C185.379,322.666,181.425,326.621,176.552,326.621"/>
	<g>
		<path style="fill:#7383BF;" d="M273.655,326.621h-61.793c-4.873,0-8.828-3.955-8.828-8.828c0-4.873,3.955-8.828,8.828-8.828
			h61.793c4.873,0,8.828,3.955,8.828,8.828C282.483,322.666,278.528,326.621,273.655,326.621"/>
		<path style="fill:#7383BF;" d="M379.586,256h-61.793c-4.873,0-8.828-3.955-8.828-8.828c0-4.873,3.955-8.828,8.828-8.828h61.793
			c4.873,0,8.828,3.955,8.828,8.828C388.414,252.045,384.459,256,379.586,256"/>
	</g>
	<path style="fill:#DD342E;" d="M467.862,185.379h-26.483c-4.873,0-8.828-3.955-8.828-8.828c0-4.873,3.955-8.828,8.828-8.828h26.483
		c4.873,0,8.828,3.955,8.828,8.828C476.69,181.425,472.735,185.379,467.862,185.379"/>
	<path style="fill:#ECBA16;" d="M406.069,185.379h-8.828c-4.873,0-8.828-3.955-8.828-8.828c0-4.873,3.955-8.828,8.828-8.828h8.828
		c4.873,0,8.828,3.955,8.828,8.828C414.897,181.425,410.942,185.379,406.069,185.379"/>
	<path style="fill:#DD342E;" d="M423.724,220.69h-52.966c-4.873,0-8.828-3.955-8.828-8.828c0-4.873,3.955-8.828,8.828-8.828h52.966
		c4.873,0,8.828,3.955,8.828,8.828C432.552,216.735,428.597,220.69,423.724,220.69"/>
	<path style="fill:#ECBA16;" d="M467.862,220.69h-8.828c-4.873,0-8.828-3.955-8.828-8.828c0-4.873,3.955-8.828,8.828-8.828h8.828
		c4.873,0,8.828,3.955,8.828,8.828C476.69,216.735,472.735,220.69,467.862,220.69"/>
	<path style="fill:#ED7161;" d="M158.897,432.552c0,14.627-11.855,26.483-26.483,26.483s-26.483-11.855-26.483-26.483
		s11.855-26.483,26.483-26.483S158.897,417.924,158.897,432.552"/>
</g>
<g>
</g>
<g>
</g>
<g>
</g>
<g>
</g>
<g>
</g>
<g>
</g>
<g>
</g>
<g>
</g>
<g>
</g>
<g>
</g>
<g>
</g>
<g>
</g>
<g>
</g>
<g>
</g>
<g>
</g>
</svg>
